<svg xmlns="http://www.w3.org/2000/svg" width="2666.563" height="2666.563" fill-rule="evenodd" clip-rule="evenodd" image-rendering="optimizeQuality" shape-rendering="geometricPrecision" text-rendering="geometricPrecision" viewBox="0 0 27777 27777" id="reliable">
  <path fill-rule="nonzero" d="M7338 12444c-47,-1045 -23,-2183 4,-3436 17,-791 35,-1630 35,-2611 0,-192 151,-347 337,-347 98,0 187,44 249,113 1061,993 2113,1422 3158,1388 1061,-34 2135,-544 3218,-1425 126,-103 300,-97 419,3 1064,865 2119,1270 3168,1255 1054,-14 2117,-450 3188,-1265 149,-114 359,-82 469,72 45,62 66,134 66,206l1 0c0,812 11,1474 20,2114 92,5958 156,10107 -6994,13189 -88,38 -183,34 -265,-3l0 1c-2098,-952 -4059,-2127 -5321,-3732 -151,247 -421,406 -723,406l-1433 0c-467,0 -847,-380 -847,-847l0 -4233c0,-467 380,-848 847,-848l404 0zm11995 -3647c0,-192 155,-347 347,-347 192,0 347,155 347,347 0,28 5,97 13,201 79,1138 414,5928 -1497,8157 -124,146 -343,163 -488,38 -145,-124 -162,-343 -38,-488 1726,-2014 1407,-6577 1331,-7661 -9,-127 -15,-212 -15,-247zm-10219 8238c5,1 10,2 15,2 324,47 740,49 1087,26l0 0c98,-6 198,28 271,104 1046,1070 2546,935 4042,800 209,-19 418,-38 561,-50 234,-100 404,-208 452,-332 47,-122 -19,-313 -253,-605 -166,-204 -59,-513 203,-562 217,-41 402,-266 304,-461 -35,-70 -105,-139 -219,-200 -317,-159 -236,-594 79,-656 411,-80 509,-432 40,-538l0 0c-154,-35 -269,-172 -270,-336 0,-191 154,-347 345,-348 434,-2 762,-132 744,-391 -5,-59 -25,-118 -60,-172 -92,-145 -277,-251 -516,-231 -474,104 -957,189 -1442,252 -477,62 -956,102 -1430,117l0 0c-123,4 -243,-57 -310,-170 -96,-165 -41,-377 124,-474 894,-525 1121,-1553 1112,-2599l0 0c0,-1 0,-2 0,-4 1,-276 -146,-429 -370,-450 -69,-6 -140,2 -207,24 -105,35 -191,107 -217,211 -92,715 -648,1763 -1343,2569 -614,710 -1354,1250 -2027,1260 -19,1 -40,1 -60,-1 -157,-17 -304,-25 -441,-23 -134,1 -264,9 -389,25 -23,5 -47,8 -72,8 -192,0 -347,-156 -347,-347l0 -191c0,-84 -69,-153 -153,-153l-1433 0c-83,0 -153,69 -153,153l0 4233c0,83 70,153 153,153l1433 0c84,0 153,-70 153,-153l0 -178 1 0c0,-21 2,-41 6,-61 33,-188 213,-314 401,-280 60,11 122,21 186,29zm695 735c1161,1354 2891,2382 4741,3232 6596,-2895 6536,-6837 6449,-12480 -7,-491 -15,-994 -19,-1470 -2159,1410 -4325,1391 -6433,-219 -1126,871 -2262,1373 -3408,1410 -1036,33 -2068,-314 -3093,-1111 -6,636 -20,1276 -33,1889 -27,1248 -51,2381 -2,3423l356 0c400,0 742,281 827,664 42,-2 85,-3 128,-3 166,-2 334,6 506,24 449,-11 1009,-447 1504,-1021 617,-714 1105,-1617 1179,-2208 2,-17 6,-34 10,-49 80,-373 351,-621 678,-729 314,-103 680,-71 967,101 301,180 520,504 519,983l0 0c8,925 -158,1811 -660,2490 602,-62 1200,-161 1789,-292 14,-3 27,-5 40,-6l0 -1c534,-56 963,199 1185,548 197,311 234,696 51,1024 -99,175 -260,331 -492,439 210,391 85,846 -252,1121 319,466 164,1058 -274,1375 196,356 218,660 115,928 -132,345 -460,575 -884,748 -37,15 -74,23 -112,25 -262,20 -431,35 -600,51 -1610,145 -3224,291 -4485,-893 -101,5 -200,7 -297,7z"></path>
</svg>
